<svg width="73" height="73" viewBox="0 0 73 73" fill="none" xmlns="http://www.w3.org/2000/svg">
<rect width="73" height="73" fill="#1E1E1E"/>
<path d="M-69 -169.525C-69 -176.415 -63.4146 -182 -56.5247 -182H1534.52C1541.41 -182 1547 -176.415 1547 -169.525V876.525C1547 883.415 1541.41 889 1534.52 889H-56.5247C-63.4146 889 -69 883.415 -69 876.525V-169.525Z" fill="white"/>
<path d="M-56.5247 -179.921H1534.52V-184.079H-56.5247V-179.921ZM1544.92 -169.525V876.525H1549.08V-169.525H1544.92ZM1534.52 886.921H-56.5247V891.079H1534.52V886.921ZM-66.9208 876.525V-169.525H-71.0792V876.525H-66.9208ZM-56.5247 886.921C-62.2663 886.921 -66.9208 882.266 -66.9208 876.525H-71.0792C-71.0792 884.563 -64.5629 891.079 -56.5247 891.079V886.921ZM1544.92 876.525C1544.92 882.266 1540.27 886.921 1534.52 886.921V891.079C1542.56 891.079 1549.08 884.563 1549.08 876.525H1544.92ZM1534.52 -179.921C1540.27 -179.921 1544.92 -175.266 1544.92 -169.525H1549.08C1549.08 -177.563 1542.56 -184.079 1534.52 -184.079V-179.921ZM-56.5247 -184.079C-64.5629 -184.079 -71.0792 -177.563 -71.0792 -169.525H-66.9208C-66.9208 -175.266 -62.2663 -179.921 -56.5247 -179.921V-184.079Z" fill="#E6E6E6"/>
<circle cx="36.5" cy="36.5" r="36.5" fill="#F85F00"/>
<path d="M17.5858 35.5858C16.8047 36.3668 16.8047 37.6332 17.5858 38.4142L30.3137 51.1421C31.0948 51.9232 32.3611 51.9232 33.1421 51.1421C33.9232 50.3611 33.9232 49.0948 33.1421 48.3137L21.8284 37L33.1421 25.6863C33.9232 24.9052 33.9232 23.6389 33.1421 22.8579C32.3611 22.0768 31.0948 22.0768 30.3137 22.8579L17.5858 35.5858ZM57 35L19 35V39L57 39V35Z" fill="white"/>
</svg>
